<?xml version="1.0" standalone="no"?>
<!DOCTYPE svg PUBLIC "-//W3C//DTD SVG 20010904//EN"
 "http://www.w3.org/TR/2001/REC-SVG-20010904/DTD/svg10.dtd">
<svg version="1.0" xmlns="http://www.w3.org/2000/svg"
 width="300.000000pt" height="300.000000pt" viewBox="0 0 300.000000 300.000000"
 preserveAspectRatio="xMidYMid meet">
<metadata>
Created by potrace 1.11, written by Peter Selinger 2001-2013
</metadata>
<g transform="translate(0.000000,300.000000) scale(0.100000,-0.100000)"
fill="#000000" stroke="none">
<path d="M1051 2598 c-73 -12 -133 -70 -149 -144 -8 -37 6 -138 32 -239 1 -5
11 -54 21 -108 19 -98 19 -99 0 -110 -11 -6 -45 -36 -75 -67 -167 -171 -255
-360 -267 -576 l-6 -102 47 22 c31 14 46 27 47 41 18 357 251 649 595 747 102
29 295 31 394 4 335 -90 576 -371 605 -705 3 -35 6 -65 8 -66 13 -8 77 -35 84
-35 8 0 0 158 -11 205 -28 128 -97 278 -171 373 -26 34 -168 172 -177 172 -5
0 -7 4 -4 8 3 5 7 19 10 33 3 13 12 58 20 99 27 133 27 134 42 200 23 109 -31
215 -126 246 -31 10 -861 12 -919 2z m903 -103 c36 -17 57 -61 50 -103 -5 -32
-40 -206 -55 -274 l-11 -48 -30 16 c-215 111 -492 126 -720 40 -36 -13 -79
-31 -97 -40 -17 -9 -31 -15 -31 -12 0 2 -11 57 -25 122 -36 167 -39 185 -38
222 0 34 25 69 58 83 11 4 211 8 443 8 359 1 429 -1 456 -14z"/>
<path d="M1350 1378 c-150 -13 -237 -29 -379 -69 -178 -51 -394 -149 -527
-240 l-40 -27 -59 98 -59 99 -46 -26 c-104 -61 -122 -74 -112 -86 5 -7 76
-124 157 -262 82 -137 150 -252 151 -254 3 -4 164 89 164 95 0 5 -45 84 -86
152 l-34 57 27 22 c14 12 38 27 52 34 14 7 39 22 54 32 16 11 29 18 30 16 3
-5 17 -36 42 -94 30 -67 104 -175 163 -238 282 -296 683 -372 1037 -198 196
97 360 270 444 471 13 30 25 56 26 58 3 4 133 -75 152 -92 10 -9 -1 -34 -47
-111 -33 -55 -60 -103 -60 -107 0 -7 160 -102 164 -97 1 2 73 123 159 268
l157 264 -82 48 -82 47 -18 -23 c-10 -13 -18 -25 -18 -28 0 -10 -72 -127 -82
-133 -5 -3 -41 15 -81 39 -131 82 -261 142 -410 192 -111 37 -108 36 -247 64
-161 32 -350 43 -510 29z"/>
<path d="M60 944 c-30 -19 -54 -39 -53 -45 2 -5 32 -57 68 -115 36 -59 65
-108 65 -111 0 -3 9 -18 21 -34 l21 -30 46 27 c82 46 83 35 -15 197 -48 81
-90 147 -93 147 -3 0 -30 -16 -60 -36z"/>
<path d="M2840 923 c-19 -32 -40 -67 -46 -78 -6 -11 -30 -51 -53 -88 -23 -38
-39 -72 -36 -77 7 -11 115 -73 119 -69 1 2 36 60 76 129 40 69 79 135 87 146
13 21 11 24 -45 58 -33 20 -61 36 -63 36 -3 0 -20 -26 -39 -57z"/>
</g>
</svg>
